<svg aria-hidden="true" style="position: absolute; width: 0; height: 0; overflow: hidden;"
    version="1.1" xmlns="http://www.w3.org/2000/svg" xmlns:xlink="http://www.w3.org/1999/xlink">
    <defs>
        <symbol id="icon-checkbox-blue" viewBox="0 0 34 32">
            <path fill="#2196f3" style="fill: var(--color1, #2196f3)"
                d="M4.267 0h25.6c2.356 0 4.267 1.91 4.267 4.267v23.467c0 2.356-1.91 4.267-4.267 4.267h-25.6c-2.356 0-4.267-1.91-4.267-4.267v-23.467c0-2.356 1.91-4.267 4.267-4.267z"></path>
        </symbol>
        <symbol id="icon-icon-send" viewBox="0 0 32 32">
            <path fill="#fff" style="fill: var(--color2, #fff)"
                d="M32 0l-32 18 10.227 3.788 15.773-14.788-11.998 16.186 0.010 0.004-0.012-0.004v8.814l5.735-6.691 7.265 2.691 5-28z"></path>
        </symbol>
        <symbol id="icon-checkbox-ok" viewBox="0 0 42 32">
            <path fill="#fff" style="fill: var(--color2, #fff); stroke: var(--color2, #fff)"
                stroke="#fff" stroke-linejoin="miter" stroke-linecap="butt" stroke-miterlimit="4"
                stroke-width="0.64"
                d="M6.263 15.205l-0.22-0.21-3.307 3.132 11.651 11.114 24.477-23.351-3.285-3.134-21.192 20.197-8.124-7.75z"></path>
        </symbol>
        <symbol id="icon-checkbox-form" viewBox="0 0 34 32">
            <path
                d="M30.341 3.556v24.889h-26.548v-24.889h26.548zM30.341 0h-26.548c-2.086 0-3.793 1.6-3.793 3.556v24.889c0 1.956 1.707 3.556 3.793 3.556h26.548c2.086 0 3.793-1.6 3.793-3.556v-24.889c0-1.956-1.707-3.556-3.793-3.556z"></path>
        </symbol>
    </defs>
</svg>